<mxfile host="app.diagrams.net" modified="2023-12-23T14:06:58.557Z" agent="Mozilla/5.0 (Macintosh; Intel Mac OS X 10_15_7) AppleWebKit/605.1.15 (KHTML, like Gecko) Version/17.0 Safari/605.1.15" etag="9QH7QpRzDDnLrtigct_X" version="22.1.11" type="github">
  <diagram name="Page-1" id="pQ98r7OthwAk9m8tN_Ru">
    <mxGraphModel dx="901" dy="598" grid="1" gridSize="10" guides="1" tooltips="1" connect="1" arrows="1" fold="1" page="1" pageScale="1" pageWidth="850" pageHeight="1100" math="0" shadow="0">
      <root>
        <mxCell id="0" />
        <mxCell id="1" parent="0" />
        <mxCell id="YN2cAjVUJ4gN2Qhq9wxK-1" value="" style="shape=image;verticalLabelPosition=bottom;labelBackgroundColor=default;verticalAlign=top;aspect=fixed;imageAspect=0;image=data:image/jpeg,/9j/4AAQSkZJRgABAQEAYABgAAD/2wBDAAgGBgcGBQgHBwcJCQgKDBQNDAsLDBkSEw8UHRofHh0aHBwgJC4nICIsIxwcKDcpLDAxNDQ0Hyc5PTgyPC4zNDL/2wBDAQkJCQwLDBgNDRgyIRwhMjIyMjIyMjIyMjIyMjIyMjIyMjIyMjIyMjIyMjIyMjIyMjIyMjIyMjIyMjIyMjIyMjL/wgARCAC7AWgDASIAAhEBAxEB/8QAGwABAAIDAQEAAAAAAAAAAAAAAAMEAgUGAQf/xAAZAQEBAAMBAAAAAAAAAAAAAAAAAQIDBAX/2gAMAwEAAhADEAAAAe0kT5YwJ0sCcQJxAnECcQJxAnqEikkuqQuqQuqQuqW0tgTiBOIE4gTiBOIE4gTiBOIE4qswngnAlAAAAGqNrrOX22GM13R7Xl1XRjjF7rpblsMNdIV72osdGzpWubs9i12ZeAAAAAABALE8E4EoAAACldpF3WbPT4yWfj3Pq7Bx6Orx5ZXUe8sNxd5Hst2zZjZkpXaRdAAAAAABALE8E4YpcgFaMugGJlSu0i6YGaAToBOgE6AToZgCPkNrrjr2OQMDNgM2AzYemRiZPPSAWKE8ZDcg9l2eu1Oeq+5wyeR0z7fmN/6vPXzjb8bWKqbfTV/GPudHcXmqrVJPMobK+PKxW6Lm9zN211rUzbNbn0fi9M/U6rX9+roNLHn2a4tjqtUdLlz3Rnup6XmTe1LXhJdoas3issnmjnMGaXQ42vdVoMcvJ6anVcz1fqc8SVvxipbKkU497pGNPZ8qvP1UHODb3uXzOlx5wbDZ8b3M3YUOm8mzU6Ozb8fpn1+t7jt1c/jv+T7NeOWXhh5l4XoYaZ21LaUSfS9CKKdYngnAlU7g1Wt2evOkAApXaRd89EKYQphCmEKYQy+gDS6frOTOvzBDMIE4gTiDKUKN6iXgQCxPBOBKApXaRdAApXaRd0O40WrbSauzwejbeMM/VaS4yqGdkvX/AD7tu3i2Y6OZRvUS8AAAABRvUS8CAWJ4JwJQFK7SLoAGr2g4jPtOa07ucsze+b6k6Br2UNh4zwxik8KvS8v23f5+TYurk12d4AAAAAKN6iXgQCxPBOBKApXaRdAAApXRyTrRyTrRyTrRyTrRyXTTgAAAAAABRvUS8CAWJ4JwJQFK7rzYMBmwGbAZsBmwGbAZsBmwGbAZsBmwGbAZsBmwGbAZsBnRt0y+CAWYTe+WBKApXRSXRSXRSXRSXRSXRSXRSXRSXRSXRSXRSXRSXRSXRSXRSXRSXRSmnAEKwP/EACwQAAAFBAAGAgICAwEAAAAAAAABAgMEBRITFBARFSAzNDBEFjUhIiRAUDH/2gAIAQEAAQUCSk1niGIYhiGIYhiGIYhiGIYhiGIYhiGIYhiGIYhiGIYhiGIYhiGIYhiGIYhiGIYhiGIYhiGIYhiHI0OtfO9IbYPfaG+0N9ob7Q32hvtDfaG+0OoM/wCorytfO/7bs0mnmnUvNcFuIbBLSahcRpqR86ZTP5pn+krytfK27KdRVFTilsnLN1an01SKzrxuEm9T5PoTFUbhtM+eX+kpxyunc5g5zBzmBlx03fmV5Wvlh+mH/bJpJP8AHGi8mW0hTZWqbIyqf8Uyl/rOKfd+ZXla+WH6Ynoft2quNqrjaq42quNqrjaq42quNqrh9yrSGKehTVP4p935leVr5Yfp/MS0mtiovOVb5leVrhzLnzK7g7IZYJqXHfPjcVv/AKIfphSkpGZoZmhmaGZoZmhmaGZoZmhlbM+KIuvKbehJqxGSi4XpF6RekXpF6RekEZHw5lz5lzCvK0JLy21Omo2+f+QJj6mUNx2mgtlh8oj6ydWsm21OOKYZ57EX1ofpiYhK5BsxUjWYGswNZgLjsJQUeOotZgazAnttswoTinoTjhNIiTUvxkp2TyMGFc6eoj5k94Sjwm4hdMUjSihcaE2FRYaC0oocJMarPOLQ86peI/OFeUn2mjU/CWM8QJkxSW9WmI8pDzcqbNYytxyZcKcrCo5MYyU5GsU7G5JkRkpiyWCiy6szFcOUzKfmtoU7wkO4hJ56ZvFclS7idNRVBal0unOtlTpdQbiNKlRXoJkSkx2kpNSSWmnyyTS2qvFlsymlvUhyAttJRJdjlPXc6VzwmmSavkaNy6OEuMk47WWGJSH2pCmyIxakWpFqRJp8VcixLFQlSEspYfjmdR/ueNAxoGNAxoERtGpKprMtxxhph+U2845wU2SlvN2xVNpMW/wTKCOpkSaXTmWzp0untSmn4DESGpaUNtzo5EtZNtU2KS6U1SYsRiao0UVJzIrJT5CZPUHigrqEhLDctw6lNIjrGFoYm93C0HaRHflJZbYU12TYpyUyIprYblMum9KjRk09l2TJ7IfpioLNkdejjr0cdejjr0cHXI6h16OOvRx16OJlXZkRKb+tBkRlcdPVtRySta6s6lJIS6XNrrENDZ1yCY63Av6zTh1imjrVPJW8zNrA+9wV5Wu2RJbjJkNxZMamQ4S43bD9MGRGWFoYWhhaGFoYWhhaGFoYWhhaBFyLg3PZfk4IJ1lKEoTwNpszwtDC0MLQwtDC0CabSY+9wV5Wu6oNOyIdGYdjxO2H6fzE2SXemudX+P73BXla74fp9sP0xOdeS9llDLKGWUMsoZZQyyhmlDNKDsyRHQw6T7HH73x/e4K8rXfD9Pth+mbqCcn+1c+t9lw3E8Dc5PJuMf3v/k3Jn6+nfruP3vj+9wV5Wu+H6famKtCalTZUqQqO5GcJ5tqTGI+K0moyUZmaeQQWQpxcoEBuQcDFJGKSMUkNMrS78f3uCvK13w/T76ipKZWRoZmxmbGZsZmxmbCltKJC2kCc4g4dO/XfP97grytd8P0++VFbls/jsMfjsMfjsMfjsMfjsMfjsMfjsMfjsMfjsMMtJYZ+f73BXla74fp/8H73BXla74fp/wDB+9wV5Wu+IpOnckXJFyRckXJFyRckXJFyRckXJFyRckXJFyRckXJFyRckXJFyRckXJFyRckXJFyRckXJFyRckXJFyQRkc7grytqSQvSL0i9IvSL0i9I14g14g14g14g14g14g14g14g14g14g14g14g14g14g14g14g14g14g14g14g14g14g14g14g14g14g14g14g14g14g14g14g14g14gbQw0d6RekGojetSYsSLEixIsSLEixIsSLEixIsSLEixIsSLEixIsSLEixIsSLEixIsSLEixIsSLEixIsSLEixIsSLEixIsSLEixIsSLEixIsSLEixIsSCSkh/8QAKBEAAgIBAwMDBAMAAAAAAAAAAAERIQIDEBIgMDEEE0AUMkFRM1Jh/9oACAEDAQE/AUiCCCCCCCiiiiEQQQQQQQQQIXXl4HvBh211vwcGcGcGcWYqO2vjrbFSz/DNQ98vG17WaXjaIo1MY7C2xcOSfyZuXvl4OORwyOORxyNNNK9k5NTKewvjrr0UstRJi0tJuOJ9Ppfo9jS/R7Ol/U9ThjjkuPbXX6f+RCV+TkhJL8lSes+9dtfHXx7LLLLLLLLLLLLLLLLLLLLL2//EACURAAIBAwMDBQEAAAAAAAAAAAABEQIDIRITMQQgMBAyQEFRM//aAAgBAgEBPwFslkslkslks1Gs1ms1molkslkslkslksljHz31+0aUekEFnjxMfPfUpRtVG1UbVRtVFul0rPiY+fjMfPper0UOol++cnT3NyiX4W4Ujq3G6qjo7rqph/Xex8+l6jXQ6TS/bGTp7e3RD8LUqCq27b0tHSWnRTL++9j5+Mx8995tUNod26lyb9z9N67+m7c/TpqnVTnxMfPff/mxvHBDHL+jMHSezxMfPxmPn4zMGDBgwYMGDBgwYMGDBgwYMGDBgZ//xAA9EAABAwICBQkGBQQCAwAAAAABAAIDETISkRAhMTNyBBMgIjRBUYGSMGFxg6HBFCNSk9FAQlBisfBDU4L/2gAIAQEABj8CcS923uKvfmr35q9+avfmr35q9+avfmr35q9+avfmr35q9+avfmr35q9+avfmr35q9+avfmr35q9+avfmr35q9+avfmr35q9+avfmr35q9+avfmr35q9+avfmr35q9+avfmr35q9+avfmr35q9+avfmm9Zxr4p/F7dofiq7ZhbVWy/tFWy/tFWy/tFWy/tFWy/tFWy/tFWy/tFWy/tFaxIPjGf6SPzT+L28PC77IxCGV5AxHANibIw1a7SMTqV1BFoOsbdFVMR+lcn4f6OPzT+L2oe1kNDsq4qDmdUtDuiTq96g/FtYH4XW+Sl5iNrjzTbnUptTYyakbTpjbHTE1rn60JR3txUVH7XloU78XfTJP4FBgbDhw6quKtg9R/hWweo/wrYPUf4To5WsBAB6p9vH5p/F7WLh0QcLvsnS/3OFOhjwjFsqgGtAA7lRopQ1TgNWLaVNwrk/B0JOAff28fmn8XtYuHQJuT0L2A9Ujaux/Rdj+i7H9F2P6Lsf0XY/oux/Rdj+idE7kep3gFCx4o4N1joScA+/t4/NP4vaxcPt3MB6zdqPJ+ZAfa417h7ePzT+LRTvVO/TWWRrPiVSKZjj4A9DFXVoi4dHWcB8VvGZreMzW8Zmt4zNbxma3jM1vGZreMzWqRufQknknkDKDW6TapeVc82j2AA+9VBqNNwVwVwVwVwVwWo6Kd6p36I/NP4k/C6lGDOqncDQlwYFFQ16p0NbHrlkNG/wArE8h8h2vftKoQ2vi3aEeSznE8CrH/AKgnPOxoqusMOOgzUxr1RRoH/fimKLh0cnD2hw621a44h8QtzH6VuY/StzH6UTzUYp34VXmGelbmP0rcx+lPkjjY17aEED3qGR5q5zalF7q0HgKoyOqMIq7q0C/E8p2bWMOxo/lUxx5hc9FuK/mR+HvCqNifwlNllhiAwipLU1zY4nAvwam967PF6U3HDEMRoOrtKq6CIDZauzx+lckbA0RiQEOwjamsaR12mmrvU7g7rVEYKi116p+2iPzThJKxpxd5XXlgd8SE8GeEtca0xBF34iKp1XDYubdR0ZFQ9hqnSRuDmMYAD8UHsAMkZxNr3+5N5RE2mJtFyflH6JQPIqhmjpxKjZo9RBvTsE0QL9pxoNE0dB/sowZo60/Uo9j2O2lhrRQOhkDtTvJclxNB/Npr+GlmumvX8FKSa1TxQ9XaU1mCtRUmqjaK1rrKmJZh86965ODI2uAd6Emp4rQ4TrTYeTSXPDcJ27UWkaj3J/I5G262Hxai07CKIVc3HGCKE7aJwD8D8NrlzcYq8sbQJpYXSyOma95PuXKPycOOKmEfqqj+QXxtla4NrtFNa5OymquM+WjkBJoOssTpojS3XsTwZYy1xrci7no/AdbuRhlt7nt1hRuika8a9ifUf3K0K0K0L8RyjXsaG9yc1oDWvjBAHuTW4wxz9QJ7k2GFwdQdy5NANskoyVjclY3JWNyVjclF1G2+CYZLWf2jVVcnbExrBR2xQmIMIY7EcR0hxOwEUXNjESQGhO/2X+1KVQNNYUoGyi5OTGwnAO5COgYK1OEa1jhjAMbg+vfqRkJ6oFU6Vz6yO/t8PcnSO2NFUMTW45KmpHinkMxvw3ORc0kHA3WPJbcPOzNaxsjsdAsDix1JOb5sDrbLlz/ORuc4gUaN3XxUb3FjRrxHUfpVGB7m4TXAAFyAEVHWW7Z6VTm205vw963bPSjNLrGwMGoKNsTGsGvYE/i6DcLnghw1B1O9M5tx52LWwuP/ACsMlGSjax/csTnsHuG1Hl87cOqkTD3Dx6MXDoj5RgLmR1xUW7kW7kW7kW7kW7kW7kW7kW7kT4mseC7xXJ+AaKHYVzU1eY/8cnh7isXPR0+K5iCo5MD+ZJ4+5BrRQDUE8DwQhla+rRhc0tWvEf8A5WOjsXjg1o9Q9bb1NqHU2bPy9ixBpxeOBci5nF1a1qNHy/vpj80/i6IMmLX+ltVz00Yc0NxdYUKj5QyBuI+Ouh6UXDoodi3bMlu2ZLdsyW7Zkt2zJbtmS3bMlu2ZLdsyVBpfBtGqnVOtfhvw7N3XzWFrQB4DTUxtyW7Z6Vu2elbtnpW7Z6Vu2elVDGg/DR8v76Y/NP4uk+GKlX6qnuCwvILT1mkdKLh9u6TvdSq/Ec9+ZfSmqnh7T5f30x+afxdOHgHSi4dEbI5MALSTqXanekLtTvSF2p3pC7U70hdqd6Qu1O9IXaj6Qu1H0hc6Zy9rSKjCNaZKBQPFadD5f39p8v76Y/NP4unDwDpRcK5svGPbRRcB+ylax7QGU2tRxCj2mjhpwaqUqSusKKtPcht2p/8A3vXJ+AdD5f39p8v76Y/NP4unDwDpBreUyADZqChDHl2Ea3u1UUTJJ3THAdZ8lPjdTWP+FJIRTG6oHu0zPAdVtMOrwQ1ECiqZHI9d3vTxWqgw8oAGAasC7SPQu0j0LtI9CMkkuM0pbT2ny/vpj80/i6cPAPYRYiB1Dt8lezNbxua3jc1vG5reNzW8bmt63Nb1uaeA9p81yfgH9B8v76Y/NP4unDwD2Bik2HvG1XS5q6XNXS5q6XNXS5q6XNXS5q6XNXS5pkTbWigr/QfL++mPzT+Lpw8A/wAF8v76Y/NP4unDwD/BfL++mPzT+Lpw6xYFcFcFcFcFcFcFcFcFcFcFcFcFcFcFcFcFcFcFcFcFcFcFcFcFcFcFcFcFcFcFcFcFcFq/9f30x+afUi5XDNXDNXDNXDNXDNXDNWRqyNWRqyNWRqyNWRqyNWRqyNWRqyNWRqyNWRqyNWRqyNWRqyNWRqyNWRqyNWRqyNWRqyNWRqyNWRqyNWRqyNVYGNr4K4Zq4ZqOhHerQrRkrRkrRkrRkrRkrRkrRkrRkrRkrRkrRkrRkrRkrRkrRkrRkrRkrRkrRkrRkrRkrRkrRkrRkrRkrRkrRkrRkrRkrRkrRkrRkrRkrRkrRkrRkrRkrRkrRkrRkrRkrRkrRktQC//EACoQAAIBAQYFBQEBAQAAAAAAAAABESExQVFh8PEQIHGhsTCBkcHRQFDh/9oACAEBAAE/IUCMOkoP8x3d3d3d3d3d3d3d3d3d3d3d3d3d3d4ilJSmk8n150EkGPS2zqa1+jWv0a1+jWv0a1+jWv0a1+jWv0QtQTaUoqvt/JrMjyf4H1EHtkg9iDMJT4tFVL1GSvbNgTCliiLpE+xO6jkmuqHbDbbjV/x6zI8n1UXK5SRHwQ4TaUhJXkMaluXeTAaTEPkPrbniNuXxekqGaIXkwbFebgSXqSpXTaVMUQVYJP8ApKth8lYCGiPxyPnz5Poa3OZnFZevrMjyfV7AQpmK8F0xmK9aQt+SprqsaxgKZEoRUqNqgyF6oUSrutgRJpQlR8o7dyaHj67WZHk+r2DhAZOVlcWfBl9epl9epl9epl9epl9epl9epl9epl9eo8YlQ3VHz16ZdyaHj67WZHk+r2D16LATTCbPA0spdSY3MevrMjyeDUs6lMF82JjitJzspHv4IcibBK1ImkTTlM7BwSpoXig2KbFNimxTYpsU2KbFEsTLdiS8iEIYaK1Ml8DCRir7IWVmWNOU+O6m6m6m6m6m6liD6Pg1LOqxF92JjhrMjyRNqRpSr8UONvUrlKX2xyRaNvFU4JDUJuxYtkhjmD34E+JKp0ZiaK/0p380WwAaMi0aZeUq9hWaWzayFIZtrwp0uOwcIugeEm5DxJ07IEbMNuG3B14CaFBRVCamGqZtw24PXKjZTgR0lZESzGokzfCJQ1zG0Euyeg2I+rpsQK1O4LTJ5JO1mIUyWUpo0zAQob8sQyD+Vzw9km3Bkrev+wK/4UnedEbeFvKWCFomxVRlTGdn4MKyph0T7tjOODVWsODWZDJCZpLR38EK+MBbaQwb6C6QpnBQzJoS/S2LNvwhkcmEpi9wghZCUX2PORElDcP2mMTNlDUSCl0Epc+ohhzCk2sSjohKIpwRZTQSjc/Cs/QXq1KlbQrUMdvcJpKnFiOonZKaE2y7iJqLlKFlHJciyRRjBH7ErKGB20bjx8lwqRfBOCkyak0Y9KYJ3i3jTplKcnQXCaoeQROcKWstK4p0FHy0xJWpvu4JLm13dc7xjZixfYQnCTVEaH1ztxST93C8Uht1PRxl4jlLRbIhRfLXxwXWRU24uKbTCTJCio0cLRsZIiSUF1wTetMS8LE8xQogddqNoNoNoEOdcuVhWW1Y0CiJClmn5Q5LjgS9iU411zEYl+VLyWm2DbBtg2wOObHC4Ud5qdR4ssE5Vi5FWbOVdEd+LWHQFbSdfRDmx3lg7DTftA3k1CcyNYV+0CQ4RIXuMwCZtSml7UySuJsyVtk1a9JLcVDyEP0rCdFyj8IZciIJWq2pUIIS1+7LsBMlxMhoSK9KDk5llU3XgslL2Ebm/rPFX3glmxVpjh0a+gn0KDOUlNXMp9UIVMsNZG1DryREbUEt0FQRLEuqpRXHk8l2CCkQbfUXE6rSXemwZAKjx02yxQ3NEUhbfA8kvKwdg4Us5XqUnGJo1+mjX6aNfpo1+i6HH7fpo1+mjX6aNfpGvqHCLeLnNUohp3jvrMVJ2oxHIs7EQlzB6joEFxwYIYsS26S9hRRNI6q0h4ROVM4Zllj9hElUFjH5YlJZxZQ+AnKlrVSX7jdKEdFany7WZHk8qBovCk8SiyU4BRPVCFpcv3C3m7BwYkJtambFNimxTYpsU2KbFNimxRCEJJWJcWNiNFdZWZnoNq8eDjnwKSTsRC4tjFu1tTbhtw24bcNuCgnLGl5drMjyeZoKRMyl4T/WnlzVVzdg9dcpjT2THkSqOrrSKunr7WZHk8zsZpGHN2Dg93EBHNVj1NZ/RrP6NZ/RrP6NZ/RrP6KkVddxUjT9CS+CEhNVYPeIVa7kv+vbWZHk8zsZpGHN2ARVLKDurRrOIbY+RKaZUlmzEx4soPZysDobRVRLAl6xdFinYhg6E8xki1Y1GtYcl/17azI8nmdjNIw5qfUksOwhPMcNK7o6HSF1a2CusbEotDMvXS2iFxxuq1bRA7iTldiFBrqWQXChOJWpYq+o0GOCBwbJNkmySXgRpJCs+vtZkeTzOxmkYeg9Ut6i8V5qYwNlmyzZZss2WKSaIc2RA0mTio/0OKLMa1h/HtZkeTzOxmkYegj1+wOhsv8ADZf4bL/DZf4bL/DZf4bL/DZf4bP/AAkBhXz+PazI8nmdjNIw/wAXazI8nmdjNIw/xdrMjyeZ2MU+SMjeDeDeDeDeDeDeDeDeDeDeDeDeDeDeDeDeDeDeDeDeDeDeDeDeDeDeDeDeDeDeDeDeBhknl4tZkNESc7Xz+973vaNGjRo0aNGjRo0aNGjRo0aNGjRo0aNGjRo0aNGjRo0aNGjRo0aNGjRo0aNGjRo0aNGjRo0aNGjRo0aNDI1Wmy4+9NiyPIbktj6f5nve973ve973ve973ve973ve973ve973ve973mEpPJH/2gAMAwEAAgADAAAAEBTjjjjjjDzzzxDjjjjjjjjglvPPPPOMzwRirvPPPPPPPPAlvPPPPKHAQ4YdPKPPPPPPPAlvPNPOIPPPPPPPCPPPPPPNAllK4mxALihzhu1R/RNDBCMDlvC+F/OCQ0qw0mTCgEIDPPAlvPHPPKPDDDDHPDPLPPLPPAlvPAPPKLtMtwqPPPPPPPPPAlvPAPPPOrD/AGajzzzzzzzzwJbzwDzzzwwwwxzzzzzzzzzwJbzwTzzzzzzzzzzzzzzzzjwL3777777777777777777677D/xAAkEQEAAgECBgMBAQAAAAAAAAABABExECEgMEBRYYFBcdGxwf/aAAgBAwEBPxAElJSUlJSUlJUVFRUWSkpKSkpKSkpKTZcw48kAGlbaMHlGWYcZtHCjsN+UZZh0xlmGlMSi9m02c1zxUBuCtrm9T7S1r7wLahSAhKz54zLMNKaKOW03c1CsIsVU8E8U8UQQNNwTYwHR8cZlmHTGWYcZgWMxwz7r3pRWj+5ZBMKE/eUZZhxoHe8MsihU9+55Ywvy/bj3NvuMau3+vKMsw6YyzDpjLAG3TAAAAEzP/8QAKBEBAAEDAgUEAgMAAAAAAAAAAQARMUEw8BAgQGFxUYGx0SGRocHx/9oACAECAQE/EEGhz1VVGZ5TynlPKCbOlVVU6g7voV6EHrwsGWQUR30rDeXQmUIvySsDSWG8vT1hvLxqOXIsVL7RBvWeJysBFiOwamO3bxEz1fhz2G8vGoxmJFb+36iDeu8SVJUlSVIwEWYoW9zJ+mLho/DnsN5enrDeXQlYokqDt/n24dIq/GJysXVHSsN5dCFaPpGaBVaD7f5O1EAYfVIeh+fECKvr/RpWG8vT1hvL09YbyxU16b//AP6GlJ//xAAqEAEAAgEDAgUEAwEBAAAAAAABABEhMfDxQVEgYXHB4RCBobEwQJFQ0f/aAAgBAQABPxDA4VABVYqbHwmx8JsfCbHwmx8JsfCbHwmx8JsfCbHwmx8JsfCbHwmx8JsfCbHwmx8JsfCbHwmx8JsfCbHwmx8JsfCbHwmx8JsfCbHwmx8JsfCbHwmx8JsfCbHwmx8JsfCbHwmx8JsfCbHwmx8JsfCbHwlBhmjYLJtfT+fKJNyFLUGqp/v8Lt27du3bt3SQ2nSgLWhlIIlmn9Tm19P5rm294JykEqQW0erSaUPVT5idEbE8vqoprUfSK6wv1Ou9ZZcQiUBarpL5nt8vdXnUKwwodMDHDBlLXX+pza+n8uDu6ctLqtxdAjpiKAVd1eNZr0AZU7Og+jK6uGx0TgfsgjKDFClB0LWvrYGFsgGedcuGgo2oFZF73iF8oCKHZx0QQ66zWle4ABdeQsmZFKgdhCfioE8tCUzqDL+/goUKACYFoQpor/1/Q5tfT+YlDqsUtZqbT3g0r3upKUd8vAujLVF/M7Q5Og8PU13ZSKzTFnX7WRWUqJSWv3TH3hnhQHQIbR5/1I3Nr6fzkGKnNZeNEpMpzyOeRzyOeRzyOeRzyOeRc6fihY4z5TVE4Guz/Ujc2vp/cIAVoXotb72/yLLlUlFGmqJWev8AQ5tfT6LUWB5Dr6TpL/eLq/r0sIBPoasclOofw18FCFLTpR1hlgWJon1IuKKEQv3m8veby95vL3m8veby95vL3m8veby94wSqQK+WfAnkjMQVF1Cyh7wMGiqK1OxWmXzYOv7GB3E1+vBZwWcFnBZwWcFi6LmtD9EEaV6iGrOhPuFaX9ebX0lfSzWvuq8lQmJ/F2ur83mhgo9ZCfn6UV6ba1fkDL3wdYnzgSJ61ejsGCaaXoX0yAzH3XKb6fVYe+sIdQrUgtr/ACD8H0KawNW6WuLbxE82FqC9We9HHSavK37j+lfUg4bQ4vUpmgjQk+lzcHtNge02B7QLPYXsJUakEPUrDNge02B7QqpOQkExAOF2LBlowQeVVTKGsArK/SWYZEM4ypYTJfJeVbhRSrpoRumCZg+VXKAgAC1zVPUdBhIV8pCxHRIkcafcQ1V1mlyNF5X8yyMKNZoEEMOZUyB6SMMgoMa4YMRiAygGmqoSpmGptaCKD6IQblIdXUzTQqn+ogw5lAuoXi169u0UewTUOC69a+vF7LjUxkFnbWrp13WXvmXwNtQwL1e4fWC7AEIuUGe6r8Sy4kkpsRdk6OjpNFp2pqDo0P2meIhlOodhj1qHK7wqFFA6An+wTBw2tU17VT9o57SKUdTWGFL/ANdSFqxVn3li5P2QC9a7dag2b6ZAoNYX9IGj5lweTAMia2yI9+ksmkSmcaZIzuBI2u6ulg15fViCa7bVB9jMQBoWAGoB6+sRQp6ZMfniv9jt0DzS6uqXQtHpC/MdC09SsLQRY0CDAB0CskAkgARrqXM9xqrTAvNPTzlW33lHVZpLL0zHQMcYUUn+Smf9OK7Dun2huBi9RKf3GM6IbFBnOQCEcG2iW2ND9vKFHXQCi7rjQWWDK16xgoAusZzG62sIgSrdubarlVa0Ng2Ooc2mkEeGawK2foBu+owMtVhcoFIdANt5dfsx1KIVxhfXuWMtHRpMs99V/RLOrBJjoBkRvS5jtMhs6E1HyY0kzKD2nA5wOcDgdisynaCZJ6mIM3ldSIGNHjwqI0F+UNDqpNIlNBQZd1b88xUAUettfqbe9pv72m/vabe9omAWL/5QDESBBBkM1jQ7sAacBt1V1XzZmpmJW1ADirfXEMrQsGk+dEtXaFJyGBRjq4wQwYIEubyVpdRlGZG8Hl91YVcozOEyVpdBKHBewVidwEytdWpgcMVaYNYtluerK9brPUoxiHwFFzouzvLwqhZHWVr1e6sMw4V0AuNZ0lVLZ7FJCTo6Am2Rp9ku97nmDCaQWaqEqjw3aCHSpckNfimzhJpVZ1mUG4NgDRyFUdS5SsetzOkEciUYROLRp2PqVkM6SBkcujN+e0LGldEu2arWb89o7ADc8oMqt9oNs6MHDLWr5s2vp4FlfVKlgdQWj3CNSWHKquqBh+z0jrHwOpLOOwms/B8AiEARq1BNV5o/l8vGTIAugEA0i8nScdLjpcdLjpFa0jitxx0uOlx0i8gBUUHNPlNz7fQVbAlgcIwRZxKPQV6tAsJKxlL00AaZACN5dduhkwAIdAKD/IkQeOqqiA81aQYBHsn4hROIzoaJeid4DRY0PDt1VA3KWFXpe6LNZ7aleTp9pj+eS9bUxbkjNRSr/Poa/T+/g5tfTwqgMuawvIWolTxqH1GsHSWfoiaigLNZH+AgA0oFieZNxe03F7TcXtNxe03F7TcXtNxe03F7TcXtAwtQKA8j62SHMIWNFUUq6lLCuDF0lXWu4X76CD7H1XD1ole61N2+03b7TdvtN2+03b7TRqgxPRD6Gv0/v4ObX08WOl71i1jXBVecYuUw0JQdES/v/VJrT6nFaQ+6MLWXdkeuvtuv5DX6f38HNr6eL8abb2fwEZmDPoE0NavGAAAAAAB5BrrJUdw6uoBukAKxYYWLmO7QEUJdNeA/F/f+Q1+n9/Bza+ni/Gm29njJT4e8tVYOue30fJCyJickfOGINsWB6j2RE9fqUoC8WxgK839S0jK5b2L2fKL13WS0uOO+kCqyLowgP3Vll3UD0bn4rwtH4v7/AMhr9P7+Dm19PF+NNt7PEMO8lp0LjOTVEBQiK6sGMaTHkEIFcXVXqsPxu6KA6AZguAsaACJ0UL+/1LhxKF+gdbVJlUNMI93ZjuF9U1+oQC8KKYX27RUKR3rjEeBNUVpd5m7/AHm7/ebv94F8kgi1sOf5DX6f38HNr6eL8abb2fwIRhiAfWl9/wB85tz3m3Pebc95tz3m3PeY8kE1KT3gEJD0FAe0xaSjVx6H9Fo1+n9/Bza+ni/Gm29n8GECtApRyRrT+KvXr169evXjuS1hWgKy9/6Br9P7+Dm19PF+NNt7P+Ea/T+/g5tfTxfjTbez/hGv0/v4ObX08X40M00tK9k43ONzjc43ONzjc43ONzjc43ONzjc43ONzjc43ONzjc43ONzjc43ONzjc43ONzjc43ONzjc43ONzjcVhQ3a+vwc0FORHpOFThU4VOFThU4VFVdRv8A4TGMYxjGMYxjGMYxjGMYxjGMYxjGMDqICCh0nCpwqADJkA1D1U1UqzhU4VOFThU4VOFThU4VOFThU4VOFThU4VOFThU4VOFThU4VOFThU4VOFThU4VOFThU4VOFThU4VOFThU4VOFThU4VOFThU4VOFThU6KOsRn/9k=;" parent="1" vertex="1">
          <mxGeometry x="100" y="30" width="360" height="187" as="geometry" />
        </mxCell>
        <mxCell id="YN2cAjVUJ4gN2Qhq9wxK-2" value="" style="rounded=0;whiteSpace=wrap;html=1;" parent="1" vertex="1">
          <mxGeometry x="365" y="280" width="120" height="60" as="geometry" />
        </mxCell>
        <mxCell id="YN2cAjVUJ4gN2Qhq9wxK-3" value="" style="rounded=0;whiteSpace=wrap;html=1;" parent="1" vertex="1">
          <mxGeometry x="365" y="380" width="120" height="60" as="geometry" />
        </mxCell>
        <mxCell id="YN2cAjVUJ4gN2Qhq9wxK-4" value="" style="rounded=0;whiteSpace=wrap;html=1;" parent="1" vertex="1">
          <mxGeometry x="365" y="480" width="120" height="60" as="geometry" />
        </mxCell>
        <mxCell id="YN2cAjVUJ4gN2Qhq9wxK-7" value="" style="ellipse;whiteSpace=wrap;html=1;aspect=fixed;" parent="1" vertex="1">
          <mxGeometry x="160" y="370" width="80" height="80" as="geometry" />
        </mxCell>
        <mxCell id="YN2cAjVUJ4gN2Qhq9wxK-8" value="" style="ellipse;whiteSpace=wrap;html=1;aspect=fixed;" parent="1" vertex="1">
          <mxGeometry x="550" y="370" width="80" height="80" as="geometry" />
        </mxCell>
        <mxCell id="YN2cAjVUJ4gN2Qhq9wxK-9" value="" style="rounded=0;whiteSpace=wrap;html=1;" parent="1" vertex="1">
          <mxGeometry x="670" y="380" width="120" height="60" as="geometry" />
        </mxCell>
        <mxCell id="YN2cAjVUJ4gN2Qhq9wxK-10" value="" style="endArrow=classic;html=1;rounded=0;exitX=1;exitY=0.5;exitDx=0;exitDy=0;entryX=0;entryY=0.5;entryDx=0;entryDy=0;" parent="1" source="YN2cAjVUJ4gN2Qhq9wxK-7" target="YN2cAjVUJ4gN2Qhq9wxK-3" edge="1">
          <mxGeometry width="50" height="50" relative="1" as="geometry">
            <mxPoint x="310" y="290" as="sourcePoint" />
            <mxPoint x="360" y="240" as="targetPoint" />
          </mxGeometry>
        </mxCell>
        <mxCell id="YN2cAjVUJ4gN2Qhq9wxK-11" value="" style="endArrow=classic;html=1;rounded=0;exitX=1;exitY=0.5;exitDx=0;exitDy=0;entryX=0.5;entryY=0;entryDx=0;entryDy=0;" parent="1" target="YN2cAjVUJ4gN2Qhq9wxK-8" edge="1">
          <mxGeometry width="50" height="50" relative="1" as="geometry">
            <mxPoint x="485" y="309.38" as="sourcePoint" />
            <mxPoint x="610" y="309.38" as="targetPoint" />
            <Array as="points">
              <mxPoint x="590" y="309" />
            </Array>
          </mxGeometry>
        </mxCell>
        <mxCell id="YN2cAjVUJ4gN2Qhq9wxK-12" value="" style="endArrow=classic;html=1;rounded=0;exitX=1;exitY=0.5;exitDx=0;exitDy=0;" parent="1" target="YN2cAjVUJ4gN2Qhq9wxK-8" edge="1">
          <mxGeometry width="50" height="50" relative="1" as="geometry">
            <mxPoint x="485" y="510.38" as="sourcePoint" />
            <mxPoint x="580" y="480" as="targetPoint" />
            <Array as="points">
              <mxPoint x="590" y="510" />
            </Array>
          </mxGeometry>
        </mxCell>
        <mxCell id="YN2cAjVUJ4gN2Qhq9wxK-13" value="" style="endArrow=classic;html=1;rounded=0;" parent="1" target="YN2cAjVUJ4gN2Qhq9wxK-8" edge="1">
          <mxGeometry width="50" height="50" relative="1" as="geometry">
            <mxPoint x="485" y="409.68" as="sourcePoint" />
            <mxPoint x="535" y="409.68" as="targetPoint" />
          </mxGeometry>
        </mxCell>
        <mxCell id="YN2cAjVUJ4gN2Qhq9wxK-14" value="" style="endArrow=classic;html=1;rounded=0;" parent="1" edge="1">
          <mxGeometry width="50" height="50" relative="1" as="geometry">
            <mxPoint x="630" y="409.68" as="sourcePoint" />
            <mxPoint x="670" y="410" as="targetPoint" />
          </mxGeometry>
        </mxCell>
        <mxCell id="YN2cAjVUJ4gN2Qhq9wxK-15" value="" style="endArrow=classic;html=1;rounded=0;entryX=0;entryY=0.5;entryDx=0;entryDy=0;" parent="1" target="YN2cAjVUJ4gN2Qhq9wxK-2" edge="1">
          <mxGeometry width="50" height="50" relative="1" as="geometry">
            <mxPoint x="330" y="410" as="sourcePoint" />
            <mxPoint x="350" y="320" as="targetPoint" />
            <Array as="points">
              <mxPoint x="330" y="310" />
            </Array>
          </mxGeometry>
        </mxCell>
        <mxCell id="YN2cAjVUJ4gN2Qhq9wxK-16" value="" style="endArrow=classic;html=1;rounded=0;entryX=0;entryY=0.5;entryDx=0;entryDy=0;" parent="1" edge="1">
          <mxGeometry width="50" height="50" relative="1" as="geometry">
            <mxPoint x="330" y="410" as="sourcePoint" />
            <mxPoint x="365" y="510" as="targetPoint" />
            <Array as="points">
              <mxPoint x="330" y="510" />
            </Array>
          </mxGeometry>
        </mxCell>
        <mxCell id="uhFg9Fx2mvhGUqrA0G0g-1" value="&lt;font style=&quot;font-size: 18px;&quot;&gt;P&lt;/font&gt;" style="text;html=1;align=center;verticalAlign=middle;resizable=0;points=[];autosize=1;strokeColor=none;fillColor=none;" vertex="1" parent="1">
          <mxGeometry x="370" y="295" width="40" height="30" as="geometry" />
        </mxCell>
        <mxCell id="uhFg9Fx2mvhGUqrA0G0g-3" value="&lt;font style=&quot;font-size: 18px;&quot;&gt;I&lt;/font&gt;" style="text;html=1;align=center;verticalAlign=middle;resizable=0;points=[];autosize=1;strokeColor=none;fillColor=none;" vertex="1" parent="1">
          <mxGeometry x="375" y="395" width="30" height="30" as="geometry" />
        </mxCell>
        <mxCell id="uhFg9Fx2mvhGUqrA0G0g-4" value="&lt;font size=&quot;4&quot;&gt;D&lt;/font&gt;" style="text;html=1;align=center;verticalAlign=middle;resizable=0;points=[];autosize=1;strokeColor=none;fillColor=none;" vertex="1" parent="1">
          <mxGeometry x="370" y="495" width="40" height="30" as="geometry" />
        </mxCell>
      </root>
    </mxGraphModel>
  </diagram>
</mxfile>
